<?xml version="1.0" encoding="iso-8859-1"?>
<!-- Generator: Adobe Illustrator 19.0.0, SVG Export Plug-In . SVG Version: 6.00 Build 0)  -->
<svg version="1.1" id="Capa_1" xmlns="http://www.w3.org/2000/svg" xmlns:xlink="http://www.w3.org/1999/xlink" x="0px" y="0px"
	 viewBox="0 0 491.52 491.52" style="enable-background:new 0 0 491.52 491.52;" xml:space="preserve">
<circle style="fill:#EA8953;" cx="245.76" cy="245.76" r="245.76"/>
<g>
	<rect x="239.36" y="170.445" style="fill:#64798A;" width="12.8" height="204.145"/>
	<rect x="101.54" y="371.2" style="fill:#64798A;" width="288.461" height="12.8"/>
</g>
<g>
	<polygon style="fill:#3A556A;" points="254.341,369.397 254.341,355.788 237.178,355.788 237.178,369.397 208.986,369.397 
		208.986,386.56 282.533,386.56 282.533,369.397 	"/>
	<path style="fill:#3A556A;" d="M382.948,104.96H115.411c-3.882,0-7.03,3.148-7.03,7.031v58.523c0,3.882,3.147,7.03,7.03,7.03
		h267.537c3.885,0,7.033-3.147,7.033-7.03v-58.523C389.981,108.108,386.833,104.96,382.948,104.96z"/>
</g>
<path style="fill:#EBF0F3;" d="M115.408,172.423c-1.055,0-1.91-0.858-1.91-1.91v-58.523c0-1.053,0.855-1.91,1.91-1.91h267.54
	c1.055,0,1.91,0.857,1.91,1.91v58.523c0,1.052-0.855,1.91-1.91,1.91H115.408z"/>
<g>
	<circle style="fill:#64798A;" cx="262.707" cy="119.572" r="4.091"/>
	<circle style="fill:#64798A;" cx="278.426" cy="119.572" r="4.091"/>
	<circle style="fill:#64798A;" cx="294.195" cy="119.572" r="4.091"/>
	<circle style="fill:#64798A;" cx="309.914" cy="119.572" r="4.091"/>
	<circle style="fill:#64798A;" cx="325.632" cy="119.572" r="4.091"/>
	<circle style="fill:#64798A;" cx="341.35" cy="119.572" r="4.091"/>
	<circle style="fill:#64798A;" cx="357.12" cy="119.572" r="4.091"/>
	<circle style="fill:#64798A;" cx="372.844" cy="119.572" r="4.091"/>
	<circle style="fill:#64798A;" cx="270.577" cy="130.412" r="4.091"/>
	<circle style="fill:#64798A;" cx="286.305" cy="130.412" r="4.091"/>
	<circle style="fill:#64798A;" cx="302.039" cy="130.412" r="4.091"/>
	<circle style="fill:#64798A;" cx="317.798" cy="130.412" r="4.091"/>
	<circle style="fill:#64798A;" cx="333.517" cy="130.412" r="4.091"/>
	<circle style="fill:#64798A;" cx="349.235" cy="130.412" r="4.091"/>
	<circle style="fill:#64798A;" cx="364.954" cy="130.412" r="4.091"/>
	<circle style="fill:#64798A;" cx="262.707" cy="141.251" r="4.091"/>
	<circle style="fill:#64798A;" cx="278.426" cy="141.251" r="4.091"/>
	<circle style="fill:#64798A;" cx="294.195" cy="141.251" r="4.091"/>
	<circle style="fill:#64798A;" cx="309.914" cy="141.251" r="4.091"/>
	<circle style="fill:#64798A;" cx="325.632" cy="141.251" r="4.091"/>
	<circle style="fill:#64798A;" cx="341.35" cy="141.251" r="4.091"/>
	<circle style="fill:#64798A;" cx="357.12" cy="141.251" r="4.091"/>
	<circle style="fill:#64798A;" cx="372.844" cy="141.251" r="4.091"/>
	<circle style="fill:#64798A;" cx="270.577" cy="152.09" r="4.091"/>
	<circle style="fill:#64798A;" cx="286.305" cy="152.09" r="4.091"/>
	<circle style="fill:#64798A;" cx="302.039" cy="152.09" r="4.091"/>
	<circle style="fill:#64798A;" cx="317.798" cy="152.09" r="4.091"/>
	<circle style="fill:#64798A;" cx="333.517" cy="152.09" r="4.091"/>
	<circle style="fill:#64798A;" cx="349.235" cy="152.09" r="4.091"/>
	<circle style="fill:#64798A;" cx="364.954" cy="152.09" r="4.091"/>
	<circle style="fill:#64798A;" cx="262.707" cy="162.929" r="4.091"/>
	<circle style="fill:#64798A;" cx="278.426" cy="162.929" r="4.091"/>
	<circle style="fill:#64798A;" cx="294.195" cy="162.929" r="4.091"/>
	<circle style="fill:#64798A;" cx="309.914" cy="162.929" r="4.091"/>
	<circle style="fill:#64798A;" cx="325.632" cy="162.929" r="4.091"/>
	<circle style="fill:#64798A;" cx="341.35" cy="162.929" r="4.091"/>
	<circle style="fill:#64798A;" cx="357.12" cy="162.929" r="4.091"/>
	<circle style="fill:#64798A;" cx="372.844" cy="162.929" r="4.091"/>
</g>
<circle style="fill:#3A556A;" cx="138.24" cy="141.251" r="16.64"/>
<circle style="fill:#64798A;" cx="138.547" cy="140.964" r="11.474"/>
<circle style="fill:#E56353;" cx="178.427" cy="141.251" r="8.392"/>
<circle style="fill:#44C4A1;" cx="212.07" cy="141.251" r="8.392"/>
<path style="fill:#3A556A;" d="M382.948,189.32H115.411c-3.882,0-7.03,3.147-7.03,7.031v58.522c0,3.882,3.147,7.03,7.03,7.03
	h267.537c3.885,0,7.033-3.148,7.033-7.03V196.35C389.981,192.467,386.833,189.32,382.948,189.32z"/>
<path style="fill:#EBF0F3;" d="M115.408,256.783c-1.055,0-1.91-0.858-1.91-1.91V196.35c0-1.053,0.855-1.91,1.91-1.91h267.54
	c1.055,0,1.91,0.858,1.91,1.91v58.522c0,1.053-0.855,1.91-1.91,1.91H115.408z"/>
<g>
	<circle style="fill:#64798A;" cx="262.707" cy="203.935" r="4.091"/>
	<circle style="fill:#64798A;" cx="278.426" cy="203.935" r="4.091"/>
	<circle style="fill:#64798A;" cx="294.195" cy="203.935" r="4.091"/>
	<circle style="fill:#64798A;" cx="309.914" cy="203.935" r="4.091"/>
	<circle style="fill:#64798A;" cx="325.632" cy="203.935" r="4.091"/>
	<circle style="fill:#64798A;" cx="341.35" cy="203.935" r="4.091"/>
	<circle style="fill:#64798A;" cx="357.12" cy="203.935" r="4.091"/>
	<circle style="fill:#64798A;" cx="372.844" cy="203.935" r="4.091"/>
	<circle style="fill:#64798A;" cx="270.577" cy="214.774" r="4.091"/>
	<circle style="fill:#64798A;" cx="286.305" cy="214.774" r="4.091"/>
	<circle style="fill:#64798A;" cx="302.039" cy="214.774" r="4.091"/>
	<circle style="fill:#64798A;" cx="317.798" cy="214.774" r="4.091"/>
	<circle style="fill:#64798A;" cx="333.517" cy="214.774" r="4.091"/>
	<circle style="fill:#64798A;" cx="349.235" cy="214.774" r="4.091"/>
	<circle style="fill:#64798A;" cx="364.954" cy="214.774" r="4.091"/>
	<circle style="fill:#64798A;" cx="262.707" cy="225.587" r="4.091"/>
	<circle style="fill:#64798A;" cx="278.426" cy="225.587" r="4.091"/>
	<circle style="fill:#64798A;" cx="294.195" cy="225.587" r="4.091"/>
	<circle style="fill:#64798A;" cx="309.914" cy="225.587" r="4.091"/>
	<circle style="fill:#64798A;" cx="325.632" cy="225.587" r="4.091"/>
	<circle style="fill:#64798A;" cx="341.35" cy="225.587" r="4.091"/>
	<circle style="fill:#64798A;" cx="357.12" cy="225.587" r="4.091"/>
	<circle style="fill:#64798A;" cx="372.844" cy="225.587" r="4.091"/>
	<circle style="fill:#64798A;" cx="270.577" cy="236.442" r="4.091"/>
	<circle style="fill:#64798A;" cx="286.305" cy="236.442" r="4.091"/>
	<circle style="fill:#64798A;" cx="302.039" cy="236.442" r="4.091"/>
	<circle style="fill:#64798A;" cx="317.798" cy="236.442" r="4.091"/>
	<circle style="fill:#64798A;" cx="333.517" cy="236.442" r="4.091"/>
	<circle style="fill:#64798A;" cx="349.235" cy="236.442" r="4.091"/>
	<circle style="fill:#64798A;" cx="364.954" cy="236.442" r="4.091"/>
	<circle style="fill:#64798A;" cx="262.707" cy="247.296" r="4.091"/>
	<circle style="fill:#64798A;" cx="278.426" cy="247.296" r="4.091"/>
	<circle style="fill:#64798A;" cx="294.195" cy="247.296" r="4.091"/>
	<circle style="fill:#64798A;" cx="309.914" cy="247.296" r="4.091"/>
	<circle style="fill:#64798A;" cx="325.632" cy="247.296" r="4.091"/>
	<circle style="fill:#64798A;" cx="341.35" cy="247.296" r="4.091"/>
	<circle style="fill:#64798A;" cx="357.12" cy="247.296" r="4.091"/>
	<circle style="fill:#64798A;" cx="372.844" cy="247.296" r="4.091"/>
</g>
<circle style="fill:#3A556A;" cx="138.24" cy="225.587" r="16.64"/>
<circle style="fill:#64798A;" cx="138.547" cy="225.331" r="11.474"/>
<circle style="fill:#E56353;" cx="178.427" cy="225.587" r="8.392"/>
<circle style="fill:#44C4A1;" cx="212.07" cy="225.587" r="8.392"/>
<path style="fill:#3A556A;" d="M382.948,273.679H115.411c-3.882,0-7.03,3.147-7.03,7.03v58.523c0,3.882,3.147,7.03,7.03,7.03
	h267.537c3.885,0,7.033-3.147,7.033-7.03V280.71C389.981,276.827,386.833,273.679,382.948,273.679z"/>
<path style="fill:#EBF0F3;" d="M115.408,341.142c-1.055,0-1.91-0.857-1.91-1.91V280.71c0-1.052,0.855-1.91,1.91-1.91h267.54
	c1.055,0,1.91,0.858,1.91,1.91v58.523c0,1.053-0.855,1.91-1.91,1.91H115.408z"/>
<g>
	<circle style="fill:#64798A;" cx="262.707" cy="288.307" r="4.091"/>
	<circle style="fill:#64798A;" cx="278.426" cy="288.307" r="4.091"/>
	<circle style="fill:#64798A;" cx="294.195" cy="288.307" r="4.091"/>
	<circle style="fill:#64798A;" cx="309.914" cy="288.307" r="4.091"/>
	<circle style="fill:#64798A;" cx="325.632" cy="288.307" r="4.091"/>
	<circle style="fill:#64798A;" cx="341.35" cy="288.307" r="4.091"/>
	<circle style="fill:#64798A;" cx="357.12" cy="288.307" r="4.091"/>
	<circle style="fill:#64798A;" cx="372.844" cy="288.307" r="4.091"/>
	<circle style="fill:#64798A;" cx="270.577" cy="299.11" r="4.091"/>
	<circle style="fill:#64798A;" cx="286.305" cy="299.11" r="4.091"/>
	<circle style="fill:#64798A;" cx="302.039" cy="299.11" r="4.091"/>
	<circle style="fill:#64798A;" cx="317.798" cy="299.11" r="4.091"/>
	<circle style="fill:#64798A;" cx="333.517" cy="299.11" r="4.091"/>
	<circle style="fill:#64798A;" cx="349.235" cy="299.11" r="4.091"/>
	<circle style="fill:#64798A;" cx="364.954" cy="299.11" r="4.091"/>
	<circle style="fill:#64798A;" cx="262.707" cy="309.965" r="4.091"/>
	<circle style="fill:#64798A;" cx="278.426" cy="309.965" r="4.091"/>
	<circle style="fill:#64798A;" cx="294.195" cy="309.965" r="4.091"/>
	<circle style="fill:#64798A;" cx="309.914" cy="309.965" r="4.091"/>
	<circle style="fill:#64798A;" cx="325.632" cy="309.965" r="4.091"/>
	<circle style="fill:#64798A;" cx="341.35" cy="309.965" r="4.091"/>
	<circle style="fill:#64798A;" cx="357.12" cy="309.965" r="4.091"/>
	<circle style="fill:#64798A;" cx="372.844" cy="309.965" r="4.091"/>
	<circle style="fill:#64798A;" cx="270.577" cy="320.819" r="4.091"/>
	<circle style="fill:#64798A;" cx="286.305" cy="320.819" r="4.091"/>
	<circle style="fill:#64798A;" cx="302.039" cy="320.819" r="4.091"/>
	<circle style="fill:#64798A;" cx="317.798" cy="320.819" r="4.091"/>
	<circle style="fill:#64798A;" cx="333.517" cy="320.819" r="4.091"/>
	<circle style="fill:#64798A;" cx="349.235" cy="320.819" r="4.091"/>
	<circle style="fill:#64798A;" cx="364.954" cy="320.819" r="4.091"/>
	<circle style="fill:#64798A;" cx="262.707" cy="331.648" r="4.091"/>
	<circle style="fill:#64798A;" cx="278.426" cy="331.648" r="4.091"/>
	<circle style="fill:#64798A;" cx="294.195" cy="331.648" r="4.091"/>
	<circle style="fill:#64798A;" cx="309.914" cy="331.648" r="4.091"/>
	<circle style="fill:#64798A;" cx="325.632" cy="331.648" r="4.091"/>
	<circle style="fill:#64798A;" cx="341.35" cy="331.648" r="4.091"/>
	<circle style="fill:#64798A;" cx="357.12" cy="331.648" r="4.091"/>
	<circle style="fill:#64798A;" cx="372.844" cy="331.648" r="4.091"/>
</g>
<circle style="fill:#3A556A;" cx="138.24" cy="309.965" r="16.64"/>
<circle style="fill:#64798A;" cx="138.547" cy="309.658" r="11.474"/>
<circle style="fill:#E56353;" cx="178.427" cy="309.965" r="8.392"/>
<circle style="fill:#44C4A1;" cx="212.07" cy="309.965" r="8.392"/>
<g>
</g>
<g>
</g>
<g>
</g>
<g>
</g>
<g>
</g>
<g>
</g>
<g>
</g>
<g>
</g>
<g>
</g>
<g>
</g>
<g>
</g>
<g>
</g>
<g>
</g>
<g>
</g>
<g>
</g>
</svg>
