<svg id="Layer_5" enable-background="new 0 0 64 64" height="512" viewBox="0 0 64 64" width="512" xmlns="http://www.w3.org/2000/svg"><circle cx="54" cy="50" fill="#e6e9ed" r="8"/><circle cx="54" cy="30" fill="#e6e9ed" r="8"/><circle cx="54" cy="10" fill="#e6e9ed" r="8"/><path d="m54 12c2.52 0 4.67 1.55 5.56 3.75-1.44 1.39-3.4 2.25-5.56 2.25s-4.12-.86-5.56-2.25c.89-2.2 3.04-3.75 5.56-3.75z" fill="#ff826e"/><path d="m54 32c2.52 0 4.67 1.55 5.56 3.75-1.44 1.39-3.4 2.25-5.56 2.25s-4.12-.86-5.56-2.25c.89-2.2 3.04-3.75 5.56-3.75z" fill="#fcd770"/><path d="m54 52c2.52 0 4.67 1.55 5.56 3.75-1.44 1.39-3.4 2.25-5.56 2.25s-4.12-.86-5.56-2.25c.89-2.2 3.04-3.75 5.56-3.75z" fill="#b4dd7f"/><circle cx="54" cy="9" fill="#f0d0b4" r="3"/><circle cx="54" cy="29" fill="#f0d0b4" r="3"/><circle cx="54" cy="49" fill="#f0d0b4" r="3"/><path d="m19 52 4 3 .94-8.45 6.26 1.79c3.43.98 5.8 4.12 5.8 7.69v5.97h-6-22-6v-5.97c0-3.57 2.37-6.71 5.8-7.69l6.26-1.79.94 8.45z" fill="#b4dd7f"/><path d="m16 46 3 6-4 3-.94-8.45z" fill="#e6e9ed"/><path d="m23.94 46.55-.94 8.45-4-3 3-6z" fill="#e6e9ed"/><path d="m30.56 18.18c-.31 1.15-.8 2.23-1.42 3.21l.47 1.39-.92.91-.41.41c-.43-.68-.93-1.31-1.5-1.88l-1.23-1.06c1.51-1.61 2.45-3.77 2.45-6.16 0-1.43-.34-2.8-.94-4-1.47-2.96-4.53-5-8.06-5s-6.59 2.04-8.06 5c-.6 1.2-.94 2.56-.94 4 0 2.39.94 4.55 2.45 6.16-1.08.8-2.01 1.8-2.73 2.94l-.02-.01-1.31-1.31.47-1.39c-.72-1.13-1.25-2.39-1.56-3.74l-1.3-.65v-4l1.3-.65c.31-1.35.84-2.61 1.56-3.74l-.47-1.39 2.83-2.83 1.39.47c1.13-.72 2.39-1.25 3.74-1.56l.65-1.3h4l.65 1.3c1.35.31 2.61.84 3.74 1.56l1.39-.47 2.83 2.83-.47 1.39c.72 1.13 1.25 2.39 1.56 3.74l1.3.65v2 2l-1.3.65c-.04.18-.09.36-.14.53z" fill="#ffc729"/><g fill="#f0d0b4"><path d="m29.12 32.88c.54.54.88 1.29.88 2.12 0 1.66-1.34 3-3 3h-1.59c.39-1.15.59-2.37.59-3.62v-2.38h1c.83 0 1.58.34 2.12.88z"/><path d="m12.59 38h-1.59c-.83 0-1.58-.34-2.12-.88s-.88-1.29-.88-2.12c0-1.66 1.34-3 3-3h1v2.38c0 1.25.2 2.47.59 3.62z"/><path d="m22 43.55v2.45l-3 6-3-6v-2.45l.2-.26c.83.69 1.77 1.27 2.8 1.71l2.8-1.71z"/><path d="m26 32v2.38c0 1.25-.2 2.47-.59 3.62-.31.97-.76 1.89-1.32 2.74-.63.96-1.4 1.82-2.29 2.55l-2.8 1.71c-1.03-.44-1.97-1.02-2.8-1.71-1.68-1.38-2.94-3.22-3.61-5.29-.39-1.15-.59-2.37-.59-3.62v-2.38h.39c2.36 0 4.65-.7 6.61-2 1.96 1.3 4.25 2 6.61 2z"/></g><path d="m16.37 19.32c.84-.21 1.72-.32 2.63-.32s1.79.11 2.63.32c1.44.35 2.77.98 3.92 1.84 1.515-1.611 2.45-3.774 2.45-6.16 0-4.971-4.029-9-9-9s-9 4.029-9 9c0 2.386.935 4.549 2.45 6.16 1.15-.86 2.48-1.49 3.92-1.84z" fill="#69d6f4"/><path d="m30 30v5c0-.83-.34-1.58-.88-2.12s-1.29-.88-2.12-.88h-1-.39c-2.36 0-4.65-.7-6.61-2-1.96 1.3-4.25 2-6.61 2h-.39-1c-1.66 0-3 1.34-3 3v-5c0-2.17.63-4.2 1.72-5.9.72-1.14 1.65-2.14 2.73-2.94 1.15-.86 2.48-1.49 3.92-1.84.84-.21 1.72-.32 2.63-.32s1.79.11 2.63.32c1.44.35 2.77.98 3.92 1.84l1.23 1.06c.57.57 1.07 1.2 1.5 1.88 1.09 1.7 1.72 3.73 1.72 5.9z" fill="#656d78"/><path d="m54 39c4.963 0 9-4.037 9-9s-4.037-9-9-9c-2.93 0-5.529 1.413-7.174 3.587l-14.438-6.664.612-.305v-1.854l12.335-3.364c1.054 3.8 4.534 6.6 8.665 6.6 4.963 0 9-4.037 9-9s-4.037-9-9-9-9 4.037-9 9c0 .139.015.275.021.413l-12.021 3.278v-1.309l-1.443-.722c-.295-1.11-.736-2.174-1.317-3.174l.511-1.535-3.702-3.701-1.535.511c-1-.581-2.063-1.022-3.174-1.317l-.722-1.444h-5.236l-.722 1.443c-1.11.295-2.174.736-3.174 1.317l-1.535-.51-3.701 3.701.511 1.535c-.581 1-1.022 2.063-1.317 3.174l-1.444.722v5.236l1.443.722c.295 1.11.736 2.174 1.317 3.174l-.51 1.534 1.213 1.216c-.932 1.705-1.463 3.659-1.463 5.736v5c0 2.206 1.794 4 4 4h.881c.685 1.734 1.752 3.292 3.119 4.564v1.682l-7.473 2.134c-3.843 1.099-6.527 4.657-6.527 8.654v6.966h36v-6.966c0-3.997-2.684-7.556-6.527-8.654l-7.473-2.134v-1.682c1.367-1.272 2.434-2.831 3.119-4.564h.881c2.206 0 4-1.794 4-4v-5c0-1.028-.144-2.021-.388-2.974l16.83 16.83c-1.51 1.61-2.442 3.768-2.442 6.144 0 4.963 4.037 9 9 9s9-4.037 9-9-4.037-9-9-9c-1.866 0-3.6.571-5.039 1.547l-18.854-18.854.643-.645-.511-1.534c.365-.627.654-1.287.906-1.96l14.652 6.762c-.508 1.126-.797 2.371-.797 3.684 0 4.963 4.037 9 9 9zm-4.321-23.504c.885-1.535 2.513-2.496 4.321-2.496s3.436.961 4.321 2.496c-1.191.939-2.69 1.504-4.321 1.504s-3.13-.565-4.321-1.504zm2.321-6.496c0-1.103.897-2 2-2s2 .897 2 2-.897 2-2 2-2-.897-2-2zm2-6c3.859 0 7 3.141 7 7 0 1.492-.473 2.873-1.271 4.01-.708-1.021-1.655-1.833-2.763-2.351.636-.708 1.034-1.634 1.034-2.659 0-2.206-1.794-4-4-4s-4 1.794-4 4c0 1.025.398 1.951 1.034 2.659-1.108.517-2.055 1.33-2.763 2.351-.798-1.137-1.271-2.518-1.271-4.01 0-3.859 3.141-7 7-7zm-44.463 19.509.417-1.252-.253-.399c-.669-1.062-1.147-2.214-1.422-3.426l-.104-.462-1.175-.588v-2.764l1.175-.588.104-.462c.274-1.212.753-2.364 1.422-3.426l.253-.399-.417-1.251 1.955-1.955 1.251.417.399-.253c1.062-.669 2.214-1.147 3.426-1.422l.462-.104.588-1.175h2.764l.588 1.175.462.104c1.212.274 2.364.753 3.426 1.422l.399.253 1.251-.417 1.955 1.955-.417 1.251.253.399c.669 1.062 1.147 2.214 1.422 3.426l.104.462 1.175.588v2.764l-1.175.588-.104.462c-.274 1.212-.753 2.364-1.422 3.426l-.253.399.417 1.252-.059.059c-.437-.552-.923-1.061-1.449-1.528 1.323-1.735 2.045-3.842 2.045-6.04 0-5.514-4.486-10-10-10s-10 4.486-10 10c0 2.198.722 4.305 2.045 6.04-.526.467-1.012.976-1.449 1.528zm19.463 9.047c-.591-.344-1.268-.556-2-.556h-1.395c-2.16 0-4.253-.634-6.051-1.832l-.554-.37-.555.37c-1.798 1.198-3.89 1.832-6.05 1.832h-1.395c-.732 0-1.409.212-2 .556v-1.556c0-5.514 4.486-10 10-10s10 4.486 10 10zm-6.246-12.946c.116-.834.192-1.713.224-2.61h3.951c-.176 1.395-.713 2.716-1.573 3.84-.809-.508-1.679-.925-2.602-1.23zm-5.556-.46c-.09-.689-.149-1.413-.177-2.15h3.958c-.029.737-.087 1.461-.177 2.15-.59-.089-1.188-.15-1.802-.15s-1.212.061-1.802.15zm-.179-4.15c.027-.723.085-1.386.161-2h3.639c.077.614.134 1.277.161 2zm5.962 0c-.024-.673-.075-1.343-.149-2h3.579c.256.631.432 1.302.52 2zm-.465-4c-.192-.919-.44-1.771-.752-2.498 1.373.508 2.57 1.376 3.471 2.498zm-2.054 0h-2.924c.479-1.977 1.15-3 1.462-3s.983 1.023 1.462 3zm-4.978 0h-2.719c.901-1.121 2.098-1.99 3.471-2.498-.312.727-.559 1.579-.752 2.498zm-3.895 2h3.579c-.074.657-.125 1.327-.149 2h-3.95c.088-.698.264-1.369.52-2zm3.432 4c.032.897.108 1.776.224 2.61-.923.305-1.793.722-2.602 1.23-.86-1.124-1.397-2.445-1.573-3.84zm-4.021 21c-1.103 0-2-.897-2-2s.897-2 2-2v1.384c0 .892.098 1.767.279 2.616zm4.801 16.149-.652-5.867.328-.094 2.256 4.512zm19.199 2.885v4.966h-4v-8h-2v8h-20v-8h-2v8h-4v-4.966c0-3.108 2.088-5.877 5.076-6.73l5.122-1.464 1.001 9.01 4.801-3.6 4.801 3.601 1.001-9.01 5.122 1.464c2.988.852 5.076 3.621 5.076 6.729zm-12.476-8.845.328.094-.652 5.867-1.932-1.448zm-1.524-1.425-2 4-2-4v-.676c.51.312 1.046.591 1.606.831l.394.169.394-.169c.561-.24 1.096-.52 1.606-.831zm-2-1.862c-3.659-1.747-6-5.438-6-9.519v-1.403c2.122-.099 4.175-.71 6-1.798 1.825 1.088 3.878 1.699 6 1.798v1.404c0 4.081-2.341 7.771-6 9.518zm8-6.902h-.279c.181-.849.279-1.724.279-2.616v-1.384c1.103 0 2 .897 2 2s-.897 2-2 2zm22.679 18.496c.885-1.535 2.513-2.496 4.321-2.496s3.436.961 4.321 2.496c-1.191.939-2.69 1.504-4.321 1.504s-3.13-.565-4.321-1.504zm2.321-6.496c0-1.103.897-2 2-2s2 .897 2 2-.897 2-2 2-2-.897-2-2zm9 1c0 1.492-.473 2.873-1.271 4.01-.708-1.021-1.655-1.833-2.763-2.351.636-.708 1.034-1.634 1.034-2.659 0-2.206-1.794-4-4-4s-4 1.794-4 4c0 1.025.398 1.951 1.034 2.659-1.108.517-2.055 1.33-2.763 2.351-.798-1.137-1.271-2.518-1.271-4.01 0-3.859 3.141-7 7-7s7 3.141 7 7zm-11.321-14.504c.885-1.535 2.513-2.496 4.321-2.496s3.436.961 4.321 2.496c-1.191.939-2.69 1.504-4.321 1.504s-3.13-.565-4.321-1.504zm2.321-6.496c0-1.103.897-2 2-2s2 .897 2 2-.897 2-2 2-2-.897-2-2zm2-6c3.859 0 7 3.141 7 7 0 1.492-.473 2.873-1.271 4.01-.708-1.021-1.655-1.833-2.763-2.351.636-.708 1.034-1.634 1.034-2.659 0-2.206-1.794-4-4-4s-4 1.794-4 4c0 1.025.398 1.951 1.034 2.659-1.108.517-2.055 1.33-2.763 2.351-.798-1.137-1.271-2.518-1.271-4.01 0-3.859 3.141-7 7-7z"/><path d="m18 55h2v2h-2z"/></svg>